<svg xmlns="http://www.w3.org/2000/svg" width="18" height="18" viewBox="0 0 24 24" fill="#25D366"><path d="M12 2a10 10 0 0 0-8.6 15.05L2 22l5.1-1.33A10 10 0 1 0 12 2zm0 18.13a8.1 8.1 0 0 1-4.13-1.13l-.3-.18-3.03.8.81-2.95-.2-.31A8.13 8.13 0 1 1 12 20.13zm4.46-6.1c-.24-.12-1.45-.72-1.67-.8-.22-.08-.39-.12-.55.12-.16.25-.63.8-.78.97-.14.16-.29.18-.53.06a6.66 6.66 0 0 1-3.3-2.89c-.25-.43.25-.4.71-1.32.08-.16.04-.3-.02-.42-.06-.12-.55-1.33-.76-1.82-.2-.48-.4-.41-.55-.42h-.47a.9.9 0 0 0-.65.3c-.22.25-.85.84-.85 2.04s.87 2.37.99 2.53c.12.16 1.71 2.61 4.15 3.66.58.25 1.03.4 1.39.51.58.19 1.11.16 1.53.1.47-.07 1.45-.59 1.65-1.16.2-.57.2-1.06.14-1.16-.06-.1-.22-.16-.46-.28z"/></svg>
